<svg xmlns="http://www.w3.org/2000/svg" xmlns:xlink="http://www.w3.org/1999/xlink" viewBox="0 0 144 144"><defs><style>.cls-1{isolation:isolate;}.cls-2{opacity:0.25;}.cls-13,.cls-14,.cls-15,.cls-16,.cls-3,.cls-4{fill:none;stroke-linecap:round;stroke-linejoin:round;}.cls-3{stroke:#fcc32e;}.cls-4{stroke:#69cbce;}.cls-5{fill:#f37d6e;}.cls-6{fill:#feda41;}.cls-7{fill:#fff;}.cls-8{fill:#c7e48e;}.cls-9{fill:#88e0e2;}.cls-10{opacity:0.36;mix-blend-mode:soft-light;}.cls-11{fill:url(#linear-gradient);}.cls-12{fill:url(#linear-gradient-2);}.cls-13{stroke:#6d9e44;}.cls-13,.cls-14,.cls-15,.cls-16{stroke-width:2px;}.cls-14{stroke:#ca7610;}.cls-15{stroke:#40899c;}.cls-16{stroke:#b52d39;}</style><linearGradient id="linear-gradient" x1="127" y1="86" x2="43" y2="86" gradientUnits="userSpaceOnUse"><stop offset="0" stop-color="#fff"/><stop offset="1"/></linearGradient><linearGradient id="linear-gradient-2" x1="79" y1="44" x2="17.002" y2="44" xlink:href="#linear-gradient"/></defs><title>puzzle</title><g class="cls-1"><g id="icons"><g class="cls-2"><line class="cls-3" x1="115" y1="63" x2="137" y2="85"/><line class="cls-3" x1="121" y1="57" x2="143" y2="79"/><line class="cls-3" x1="109" y1="69" x2="131" y2="91"/><line class="cls-3" x1="137" y1="63" x2="115" y2="85"/><line class="cls-3" x1="131" y1="57" x2="109" y2="79"/><line class="cls-3" x1="143" y1="69" x2="121" y2="91"/></g><g class="cls-2"><line class="cls-4" x1="21" y1="48" x2="43" y2="70"/><line class="cls-4" x1="27" y1="42" x2="49" y2="64"/><line class="cls-4" x1="15" y1="54" x2="37" y2="76"/><line class="cls-4" x1="43" y1="48" x2="21" y2="70"/><line class="cls-4" x1="37" y1="42" x2="15" y2="64"/><line class="cls-4" x1="49" y1="54" x2="27" y2="76"/></g><g id="_Group_" data-name="&lt;Group&gt;"><path class="cls-5" d="M127,86v38a4,4,0,0,1-4,4H85V116.31A14.361,14.361,0,0,1,78.17,118c-7.09,0-9.17-4.92-9.17-11s2.08-11,9.17-11A14.361,14.361,0,0,1,85,97.69V86H96.69A14.361,14.361,0,0,0,95,92.83c0,7.09,4.92,9.17,11,9.17s11-2.08,11-9.17A14.361,14.361,0,0,0,115.31,86Z"/><path class="cls-6" d="M127,48V86H115.31A14.361,14.361,0,0,1,117,92.83c0,7.09-4.92,9.17-11,9.17s-11-2.08-11-9.17A14.361,14.361,0,0,1,96.69,86H85V74.31A14.361,14.361,0,0,0,91.83,76c7.09,0,9.17-4.92,9.17-11s-2.08-11-9.17-11A14.361,14.361,0,0,0,85,55.69V44h38A4,4,0,0,1,127,48Z"/><path class="cls-7" d="M123,44h-5a4,4,0,0,1,4,4v76a4,4,0,0,1-4,4h5a4,4,0,0,0,4-4V48A4,4,0,0,0,123,44Z"/><path class="cls-8" d="M85,116.31V128H47a4,4,0,0,1-4-4V86H54.69A14.361,14.361,0,0,1,53,79.17C53,72.08,57.92,70,64,70s11,2.08,11,9.17A14.361,14.361,0,0,1,73.31,86H85V97.69A14.361,14.361,0,0,0,78.17,96C71.08,96,69,100.92,69,107s2.08,11,9.17,11A14.361,14.361,0,0,0,85,116.31Z"/><path class="cls-9" d="M77.59,29.81c2.34,5.63,2.3,10.98-4.27,13.7a14.493,14.493,0,0,1-6.98,1.06l4.49,10.82L59.99,59.87a14.443,14.443,0,0,0-1.05-6.97c-2.73-6.56-8.09-6.6-13.72-4.27s-9.4,6.14-6.68,12.71a14.572,14.572,0,0,0,4.19,5.68L31.9,71.5,17.31,36.31a4.008,4.008,0,0,1,2.17-5.24L54.7,16.5l4.49,10.82a14.311,14.311,0,0,1,5.68-4.18C71.44,20.42,75.26,24.18,77.59,29.81Z"/><g class="cls-10"><path class="cls-11" d="M123,44H85V55.69A14.361,14.361,0,0,1,91.83,54c7.09,0,9.17,4.92,9.17,11s-2.08,11-9.17,11A14.361,14.361,0,0,1,85,74.31V86H73.31A14.361,14.361,0,0,0,75,79.17C75,72.08,70.08,70,64,70s-11,2.08-11,9.17A14.361,14.361,0,0,0,54.69,86H43v38a4,4,0,0,0,4,4h76a4,4,0,0,0,4-4V48A4,4,0,0,0,123,44Z"/><path class="cls-12" d="M38.54,61.34c-2.72-6.57,1.04-10.38,6.68-12.71s10.99-2.29,13.72,4.27a14.443,14.443,0,0,1,1.05,6.97l10.84-4.48L66.34,44.57a14.494,14.494,0,0,0,6.98-1.06c6.57-2.72,6.61-8.07,4.27-13.7s-6.15-9.39-12.72-6.67a14.31,14.31,0,0,0-5.68,4.18L54.7,16.5,19.48,31.07a4.008,4.008,0,0,0-2.17,5.24L31.9,71.5l10.83-4.48A14.572,14.572,0,0,1,38.54,61.34Z"/></g><line class="cls-3" x1="108.5" y1="50.5" x2="115.5" y2="57.5"/><line class="cls-3" x1="106.5" y1="52.5" x2="113.5" y2="59.5"/><line class="cls-3" x1="113.5" y1="50.5" x2="106.5" y2="57.5"/><line class="cls-3" x1="115.5" y1="52.5" x2="108.5" y2="59.5"/><path class="cls-7" d="M58.552,25.9l-3.87-9.342-4.619,1.913,4.474,10.8A14.143,14.143,0,0,1,58.552,25.9Z"/><path class="cls-7" d="M64.819,23.178a14.893,14.893,0,0,0-2.283,1.189c5.144-1.019,8.31,2.465,10.345,7.378s2.26,9.615-2.1,12.532a14.893,14.893,0,0,0,2.455-.773c6.55-2.713,6.589-8.055,4.262-13.672S71.37,20.465,64.819,23.178Z"/><path class="cls-7" d="M61.662,46.469l4.474,10.8,4.619-1.913-3.87-9.342A14.143,14.143,0,0,1,61.662,46.469Z"/><path class="cls-13" d="M85,128H47a4,4,0,0,1-4-4V86H54.69A14.361,14.361,0,0,1,53,79.17C53,72.08,57.92,70,64,70s11,2.08,11,9.17A14.361,14.361,0,0,1,73.31,86H85"/><path class="cls-14" d="M85,86V74.31A14.361,14.361,0,0,0,91.83,76c7.09,0,9.17-4.92,9.17-11s-2.08-11-9.17-11A14.361,14.361,0,0,0,85,55.69V44h38a4,4,0,0,1,4,4V86"/><path class="cls-15" d="M45.22,48.63c-5.64,2.33-9.4,6.14-6.68,12.71a14.572,14.572,0,0,0,4.19,5.68L31.9,71.5,17.31,36.31a4.008,4.008,0,0,1,2.17-5.24L54.7,16.5l4.49,10.82a14.311,14.311,0,0,1,5.68-4.18c6.57-2.72,10.39,1.04,12.72,6.67s2.3,10.98-4.27,13.7a14.493,14.493,0,0,1-6.98,1.06l4.49,10.82L59.99,59.87a14.443,14.443,0,0,0-1.05-6.97C56.21,46.34,50.85,46.3,45.22,48.63Z"/><path class="cls-16" d="M127,86v38a4,4,0,0,1-4,4H85V116.31A14.361,14.361,0,0,1,78.17,118c-7.09,0-9.17-4.92-9.17-11s2.08-11,9.17-11A14.361,14.361,0,0,1,85,97.69V86H96.69A14.361,14.361,0,0,0,95,92.83c0,7.09,4.92,9.17,11,9.17s11-2.08,11-9.17A14.361,14.361,0,0,0,115.31,86Z"/></g></g></g></svg>